# xmcd
#
# Track frame offsets: 
#        150
#        11361
#        24103
#        38220
#        53996
#        65622
#        80326
#        92879
#        104585
#        115084
#        129424
#        143297
#        153906
#
# Disc length: 2190 seconds
#
# Revision: 1
# Processed by: cddbd v1.5.2PL0 Copyright (c) Steve Scherf et al.
# Submitted via: ExactAudioCopyFreeDBPlugin 1.0
#
DISCID=99088c0d
DTITLE=Bettye LaVette - Take Another Little Piece of My Heart
DYEAR=2006
DGENRE=Soul
TTITLE0=At the Mercy of a Man
TTITLE1=Do Your Duty
TTITLE2=Easier to Say (Than Do)
TTITLE3=Games People Play
TTITLE4=He Made a Woman Out of Me
TTITLE5=I'm in Love
TTITLE6=Hello Sunshine (with Hank Ballard)
TTITLE7=Love Made a Fool of Me
TTITLE8=My Train's Comin' In
TTITLE9=Nearer to You
TTITLE10=We Got to Slip Around
TTITLE11=Piece of My Heart
TTITLE12=Let's Go, Let's Go, Let's Go (with Hank Ballard)
EXTD=
EXTT0=
EXTT1=
EXTT2=
EXTT3=
EXTT4=
EXTT5=
EXTT6=
EXTT7=
EXTT8=
EXTT9=
EXTT10=
EXTT11=
EXTT12=
PLAYORDER=
